<svg width="34" height="34" viewBox="0 0 34 34" fill="none" xmlns="http://www.w3.org/2000/svg">
<circle cx="17" cy="17" r="17" fill="#3B5976"/>
<path d="M19.574 16.55C19.574 17.099 19.169 17.549 18.656 17.549C18.152 17.549 17.738 17.099 17.738 16.55C17.738 16.001 18.143 15.551 18.656 15.551C19.169 15.551 19.574 16.001 19.574 16.55ZM15.371 15.551C14.858 15.551 14.453 16.001 14.453 16.55C14.453 17.099 14.867 17.549 15.371 17.549C15.884 17.549 16.289 17.099 16.289 16.55C16.298 16.001 15.884 15.551 15.371 15.551ZM24.875 9.854V26C22.6076 23.9963 23.3328 24.6596 20.699 22.211L21.176 23.876H10.97C9.953 23.876 9.125 23.048 9.125 22.022V9.854C9.125 8.828 9.953 8 10.97 8H23.03C24.047 8 24.875 8.828 24.875 9.854ZM22.31 18.386C22.31 15.488 21.014 13.139 21.014 13.139C19.718 12.167 18.485 12.194 18.485 12.194L18.359 12.338C19.889 12.806 20.6 13.481 20.6 13.481C18.4621 12.3093 15.9508 12.3091 13.877 13.22C13.544 13.373 13.346 13.481 13.346 13.481C13.346 13.481 14.093 12.77 15.713 12.302L15.623 12.194C15.623 12.194 14.39 12.167 13.094 13.139C13.094 13.139 11.798 15.488 11.798 18.386C11.798 18.386 12.554 19.691 14.543 19.754C14.543 19.754 14.876 19.349 15.146 19.007C14.003 18.665 13.571 17.945 13.571 17.945C13.7034 18.0377 13.9217 18.1578 13.94 18.17C15.4591 19.0207 17.6169 19.2994 19.556 18.485C19.871 18.368 20.222 18.197 20.591 17.954C20.591 17.954 20.141 18.692 18.962 19.025C19.232 19.367 19.556 19.754 19.556 19.754C21.545 19.691 22.31 18.386 22.31 18.386Z" fill="white"/>
</svg>
