<svg width="48" height="48" viewBox="0 0 48 48" fill="none" xmlns="http://www.w3.org/2000/svg">
<rect width="48" height="48" rx="4" fill="#364C62"/>
<path d="M12 37.3335C11.2667 37.3335 10.6389 37.0724 10.1167 36.5502C9.59444 36.0279 9.33333 35.4002 9.33333 34.6668V17.3335H12V34.6668H32V37.3335H12ZM26.6667 26.2002L17.3333 20.7335V29.3335H36V20.7335L26.6667 26.2002ZM17.3333 32.0002C16.6 32.0002 15.9722 31.7391 15.45 31.2168C14.9278 30.6946 14.6667 30.0668 14.6667 29.3335V18.0002C14.6667 17.5335 14.7722 17.0891 14.9833 16.6668C15.1944 16.2446 15.5111 15.9113 15.9333 15.6668L26.6667 9.3335L29.3333 10.9002L17.6 17.8002L26.6667 23.1335L35.6667 17.8002C36 17.6002 36.3389 17.5057 36.6833 17.5168C37.0278 17.5279 37.3556 17.6224 37.6667 17.8002C37.9778 17.9779 38.2222 18.2168 38.4 18.5168C38.5778 18.8168 38.6667 19.1557 38.6667 19.5335V29.3335C38.6667 30.0668 38.4056 30.6946 37.8833 31.2168C37.3611 31.7391 36.7333 32.0002 36 32.0002H17.3333ZM26.6667 21.3335L22.9333 17.6002L24.8 15.7335L26.6667 17.6002L31.4 12.8668L33.2667 14.7335L26.6667 21.3335ZM26.6667 29.3335H36H17.3333H26.6667Z" fill="white"/>
</svg>
