<svg width="48" height="48" viewBox="0 0 48 48" fill="none" xmlns="http://www.w3.org/2000/svg">
<rect width="48" height="48" rx="4" fill="#364C62"/>
<path d="M24 23.9998C24.7333 23.9998 25.3611 23.7387 25.8833 23.2165C26.4055 22.6943 26.6666 22.0665 26.6666 21.3332C26.6666 20.5998 26.4055 19.9721 25.8833 19.4498C25.3611 18.9276 24.7333 18.6665 24 18.6665C23.2666 18.6665 22.6389 18.9276 22.1166 19.4498C21.5944 19.9721 21.3333 20.5998 21.3333 21.3332C21.3333 22.0665 21.5944 22.6943 22.1166 23.2165C22.6389 23.7387 23.2666 23.9998 24 23.9998ZM24 33.7998C26.7111 31.3109 28.7222 29.0498 30.0333 27.0165C31.3444 24.9832 32 23.1776 32 21.5998C32 19.1776 31.2278 17.1943 29.6833 15.6498C28.1389 14.1054 26.2444 13.3332 24 13.3332C21.7555 13.3332 19.8611 14.1054 18.3166 15.6498C16.7722 17.1943 16 19.1776 16 21.5998C16 23.1776 16.6555 24.9832 17.9666 27.0165C19.2778 29.0498 21.2889 31.3109 24 33.7998ZM24 37.3332C20.4222 34.2887 17.75 31.4609 15.9833 28.8498C14.2166 26.2387 13.3333 23.8221 13.3333 21.5998C13.3333 18.2665 14.4055 15.6109 16.55 13.6332C18.6944 11.6554 21.1778 10.6665 24 10.6665C26.8222 10.6665 29.3055 11.6554 31.45 13.6332C33.5944 15.6109 34.6666 18.2665 34.6666 21.5998C34.6666 23.8221 33.7833 26.2387 32.0166 28.8498C30.25 31.4609 27.5778 34.2887 24 37.3332Z" fill="white"/>
</svg>
