<svg width="40" height="40" viewBox="0 0 40 40" fill="none" xmlns="http://www.w3.org/2000/svg">
<path d="M22.6172 5.22656L20.8828 3.49219C20.1484 2.75781 18.9609 2.75781 18.2344 3.49219L3.04688 18.6719C2.3125 19.4062 2.3125 20.5938 3.04688 21.3203L18.2344 36.5078C18.9688 37.2422 20.1562 37.2422 20.8828 36.5078L22.6172 34.7734C23.3594 34.0312 23.3438 32.8203 22.5859 32.0938L13.1719 23.125H35.625C36.6641 23.125 37.5 22.2891 37.5 21.25V18.75C37.5 17.7109 36.6641 16.875 35.625 16.875H13.1719L22.5859 7.90625C23.3516 7.17969 23.3672 5.96875 22.6172 5.22656Z" fill="#828282"/>
</svg>
