<svg width="40" height="40" viewBox="0 0 40 40" fill="none" xmlns="http://www.w3.org/2000/svg">
<path d="M17.3828 5.22656L19.1172 3.49219C19.8516 2.75781 21.0391 2.75781 21.7656 3.49219L36.9531 18.6719C37.6875 19.4062 37.6875 20.5938 36.9531 21.3203L21.7656 36.5078C21.0312 37.2422 19.8438 37.2422 19.1172 36.5078L17.3828 34.7734C16.6406 34.0312 16.6562 32.8203 17.4141 32.0938L26.8281 23.125H4.375C3.33594 23.125 2.5 22.2891 2.5 21.25V18.75C2.5 17.7109 3.33594 16.875 4.375 16.875H26.8281L17.4141 7.90625C16.6484 7.17969 16.6328 5.96875 17.3828 5.22656Z" fill="#828282"/>
</svg>
