<svg width="48" height="48" viewBox="0 0 48 48" fill="none" xmlns="http://www.w3.org/2000/svg">
<rect width="48" height="48" rx="4" fill="#364C62"/>
<path d="M24 25.3333V13.3333C24 12.9556 24.1278 12.6389 24.3833 12.3833C24.6389 12.1278 24.9556 12 25.3333 12H34.6667C35.0444 12 35.3611 12.1278 35.6167 12.3833C35.8722 12.6389 36 12.9556 36 13.3333V20C36 20.3778 35.8722 20.6944 35.6167 20.95C35.3611 21.2056 35.0444 21.3333 34.6667 21.3333H28L24 25.3333ZM26.6667 18.6667H33.3333V14.6667H26.6667V18.6667ZM34.6 36C31.8222 36 29.0778 35.3944 26.3667 34.1833C23.6556 32.9722 21.1889 31.2556 18.9667 29.0333C16.7444 26.8111 15.0278 24.3444 13.8167 21.6333C12.6056 18.9222 12 16.1778 12 13.4C12 13 12.1333 12.6667 12.4 12.4C12.6667 12.1333 13 12 13.4 12H18.8C19.1111 12 19.3889 12.1056 19.6333 12.3167C19.8778 12.5278 20.0222 12.7778 20.0667 13.0667L20.9333 17.7333C20.9778 18.0889 20.9667 18.3889 20.9 18.6333C20.8333 18.8778 20.7111 19.0889 20.5333 19.2667L17.3 22.5333C17.7444 23.3556 18.2722 24.15 18.8833 24.9167C19.4944 25.6833 20.1667 26.4222 20.9 27.1333C21.5889 27.8222 22.3111 28.4611 23.0667 29.05C23.8222 29.6389 24.6222 30.1778 25.4667 30.6667L28.6 27.5333C28.8 27.3333 29.0611 27.1833 29.3833 27.0833C29.7056 26.9833 30.0222 26.9556 30.3333 27L34.9333 27.9333C35.2444 28.0222 35.5 28.1833 35.7 28.4167C35.9 28.65 36 28.9111 36 29.2V34.6C36 35 35.8667 35.3333 35.6 35.6C35.3333 35.8667 35 36 34.6 36ZM16.0333 20L18.2333 17.8L17.6667 14.6667H14.7C14.8111 15.5778 14.9667 16.4778 15.1667 17.3667C15.3667 18.2556 15.6556 19.1333 16.0333 20ZM27.9667 31.9333C28.8333 32.3111 29.7167 32.6111 30.6167 32.8333C31.5167 33.0556 32.4222 33.2 33.3333 33.2667V30.3333L30.2 29.7L27.9667 31.9333Z" fill="white"/>
</svg>
