<svg width="36" height="36" viewBox="0 0 36 36" fill="none" xmlns="http://www.w3.org/2000/svg">
<path d="M30.75 18C30.125 18 29.5938 17.7813 29.1563 17.3438C28.7188 16.9063 28.5 16.375 28.5 15.75V6.75C28.5 6.125 28.7188 5.59375 29.1563 5.15625C29.5938 4.71875 30.125 4.5 30.75 4.5C31.375 4.5 31.9063 4.71875 32.3438 5.15625C32.7813 5.59375 33 6.125 33 6.75V15.75C33 16.375 32.7813 16.9063 32.3438 17.3438C31.9063 17.7813 31.375 18 30.75 18ZM15 18C13.35 18 11.9375 17.4125 10.7625 16.2375C9.5875 15.0625 9 13.65 9 12C9 10.35 9.5875 8.9375 10.7625 7.7625C11.9375 6.5875 13.35 6 15 6C16.65 6 18.0625 6.5875 19.2375 7.7625C20.4125 8.9375 21 10.35 21 12C21 13.65 20.4125 15.0625 19.2375 16.2375C18.0625 17.4125 16.65 18 15 18ZM3 30V25.8C3 24.95 3.2125 24.1688 3.6375 23.4563C4.0625 22.7438 4.65 22.2 5.4 21.825C6.9 21.075 8.45625 20.5 10.0688 20.1C11.6813 19.7 13.325 19.5 15 19.5C16.675 19.5 18.3188 19.7 19.9313 20.1C21.5438 20.5 23.1 21.075 24.6 21.825C25.35 22.2 25.9375 22.7438 26.3625 23.4563C26.7875 24.1688 27 24.95 27 25.8V30H3ZM6 27H24V25.8C24 25.525 23.9375 25.275 23.8125 25.05C23.6875 24.825 23.5 24.65 23.25 24.525C21.975 23.875 20.6438 23.375 19.2563 23.025C17.8688 22.675 16.45 22.5 15 22.5C13.55 22.5 12.1313 22.675 10.7438 23.025C9.35625 23.375 8.025 23.875 6.75 24.525C6.5 24.65 6.3125 24.825 6.1875 25.05C6.0625 25.275 6 25.525 6 25.8V27ZM15 15C15.825 15 16.5313 14.7063 17.1188 14.1188C17.7063 13.5312 18 12.825 18 12C18 11.175 17.7063 10.4688 17.1188 9.88125C16.5313 9.29375 15.825 9 15 9C14.175 9 13.4688 9.29375 12.8813 9.88125C12.2938 10.4688 12 11.175 12 12C12 12.825 12.2938 13.5312 12.8813 14.1188C13.4688 14.7063 14.175 15 15 15Z" fill="white"/>
</svg>
