<svg width="20" height="20" viewBox="0 0 20 20" fill="none" xmlns="http://www.w3.org/2000/svg">
<path d="M10 6L5 11L6.4 12.4L9 9.825V20H11V9.825L13.6 12.4L15 11L10 6ZM1.65 15.5C1.11667 14.6833 0.708333 13.8083 0.425 12.875C0.141667 11.9417 0 10.9833 0 10C0 8.61667 0.2625 7.31667 0.7875 6.1C1.3125 4.88333 2.025 3.825 2.925 2.925C3.825 2.025 4.88333 1.3125 6.1 0.7875C7.31667 0.2625 8.61667 0 10 0C11.3833 0 12.6833 0.2625 13.9 0.7875C15.1167 1.3125 16.175 2.025 17.075 2.925C17.975 3.825 18.6875 4.88333 19.2125 6.1C19.7375 7.31667 20 8.61667 20 10C20 10.9833 19.8583 11.9417 19.575 12.875C19.2917 13.8083 18.8833 14.6833 18.35 15.5L16.9 14.05C17.2667 13.4333 17.5417 12.7833 17.725 12.1C17.9083 11.4167 18 10.7167 18 10C18 7.76667 17.225 5.875 15.675 4.325C14.125 2.775 12.2333 2 10 2C7.76667 2 5.875 2.775 4.325 4.325C2.775 5.875 2 7.76667 2 10C2 10.7167 2.09167 11.4167 2.275 12.1C2.45833 12.7833 2.73333 13.4333 3.1 14.05L1.65 15.5Z" fill="white"/>
</svg>
