<svg width="34" height="34" viewBox="0 0 34 34" fill="none" xmlns="http://www.w3.org/2000/svg">
<circle cx="17" cy="17" r="17" fill="#3B5976"/>
<path d="M25.1767 12.8776C24.9804 12.1385 24.4021 11.5565 23.6678 11.3589C22.3369 11 17 11 17 11C17 11 11.6631 11 10.3322 11.3589C9.59788 11.5565 9.01957 12.1385 8.82328 12.8776C8.46666 14.2172 8.46666 17.0121 8.46666 17.0121C8.46666 17.0121 8.46666 19.8071 8.82328 21.1467C9.01957 21.8857 9.59788 22.4435 10.3322 22.6411C11.6631 23 17 23 17 23C17 23 22.3369 23 23.6678 22.6411C24.4021 22.4435 24.9804 21.8857 25.1767 21.1467C25.5333 19.8071 25.5333 17.0121 25.5333 17.0121C25.5333 17.0121 25.5333 14.2172 25.1767 12.8776ZM15.2545 19.5497V14.4745L19.7151 17.0122L15.2545 19.5497Z" fill="white"/>
</svg>
